<svg width="110" height="110" viewBox="0 0 110 110" fill="none" xmlns="http://www.w3.org/2000/svg">
<path d="M99.1397 75.3994H35.17L38.3819 68.8574L91.7491 68.7607C93.5538 68.7607 95.1006 67.4717 95.4229 65.6885L102.814 24.3203C103.007 23.2354 102.717 22.1182 102.008 21.2695C101.657 20.8519 101.22 20.5154 100.727 20.2836C100.234 20.0517 99.6956 19.93 99.1504 19.9268L31.2598 19.7012L30.6797 16.9727C30.3145 15.2324 28.7461 13.9648 26.9629 13.9648H10.3663C9.36056 13.9648 8.39605 14.3644 7.68491 15.0755C6.97378 15.7866 6.57426 16.7511 6.57426 17.7568C6.57426 18.7625 6.97378 19.727 7.68491 20.4382C8.39605 21.1493 9.36056 21.5488 10.3663 21.5488H23.8907L26.4258 33.6016L32.667 63.8193L24.6319 76.9355C24.2146 77.4987 23.9633 78.1675 23.9063 78.8661C23.8494 79.5647 23.9891 80.2653 24.3096 80.8887C24.9541 82.167 26.254 82.9727 27.6934 82.9727H34.4395C33.0013 84.8828 32.2245 87.2095 32.2266 89.6006C32.2266 95.6807 37.168 100.622 43.2481 100.622C49.3282 100.622 54.2696 95.6807 54.2696 89.6006C54.2696 87.2051 53.4747 84.874 52.0567 82.9727H69.3624C67.9242 84.8828 67.1473 87.2095 67.1495 89.6006C67.1495 95.6807 72.0909 100.622 78.1709 100.622C84.251 100.622 89.1924 95.6807 89.1924 89.6006C89.1924 87.2051 88.3975 84.874 86.9795 82.9727H99.1504C101.234 82.9727 102.942 81.2754 102.942 79.1807C102.936 78.176 102.533 77.2146 101.82 76.5062C101.108 75.7978 100.144 75.4 99.1397 75.3994V75.3994ZM32.8389 27.1777L94.6924 27.3818L88.6338 61.3057L40.0469 61.3916L32.8389 27.1777ZM43.2481 92.9951C41.379 92.9951 39.8536 91.4697 39.8536 89.6006C39.8536 87.7314 41.379 86.2061 43.2481 86.2061C45.1172 86.2061 46.6426 87.7314 46.6426 89.6006C46.6426 90.5009 46.285 91.3643 45.6484 92.0009C45.0118 92.6375 44.1484 92.9951 43.2481 92.9951V92.9951ZM78.1709 92.9951C76.3018 92.9951 74.7764 91.4697 74.7764 89.6006C74.7764 87.7314 76.3018 86.2061 78.1709 86.2061C80.0401 86.2061 81.5655 87.7314 81.5655 89.6006C81.5655 90.5009 81.2078 91.3643 80.5712 92.0009C79.9346 92.6375 79.0712 92.9951 78.1709 92.9951V92.9951Z" fill="#BDBDBD"/>
</svg>
