<svg width="110" height="110" viewBox="0 0 110 110" fill="none" xmlns="http://www.w3.org/2000/svg">
<path d="M102.85 57.0969L92.5375 33.0344C92.2743 32.4131 91.8342 31.8829 91.2718 31.51C90.7094 31.1372 90.0498 30.938 89.375 30.9375H79.0625V24.0625C79.0625 23.1508 78.7003 22.2765 78.0557 21.6318C77.411 20.9872 76.5367 20.625 75.625 20.625H10.3125C9.40082 20.625 8.52648 20.9872 7.88182 21.6318C7.23716 22.2765 6.875 23.1508 6.875 24.0625V82.5C6.875 83.4117 7.23716 84.286 7.88182 84.9307C8.52648 85.5753 9.40082 85.9375 10.3125 85.9375H17.6687C18.4603 88.8503 20.1884 91.4217 22.5864 93.255C24.9844 95.0883 27.919 96.0816 30.9375 96.0816C33.956 96.0816 36.8906 95.0883 39.2886 93.255C41.6866 91.4217 43.4147 88.8503 44.2062 85.9375H65.7937C66.5853 88.8503 68.3134 91.4217 70.7114 93.255C73.1094 95.0883 76.044 96.0816 79.0625 96.0816C82.081 96.0816 85.0156 95.0883 87.4136 93.255C89.8116 91.4217 91.5397 88.8503 92.3313 85.9375H99.6875C100.599 85.9375 101.474 85.5753 102.118 84.9307C102.763 84.286 103.125 83.4117 103.125 82.5V58.4375C103.124 57.9767 103.031 57.5208 102.85 57.0969ZM79.0625 37.8125H87.1063L94.4625 55H79.0625V37.8125ZM30.9375 89.375C29.5778 89.375 28.2485 88.9718 27.118 88.2163C25.9874 87.4609 25.1062 86.3872 24.5858 85.1309C24.0655 83.8747 23.9293 82.4924 24.1946 81.1588C24.4599 79.8251 25.1147 78.6001 26.0761 77.6386C27.0376 76.6772 28.2626 76.0224 29.5963 75.7571C30.9299 75.4918 32.3122 75.628 33.5684 76.1483C34.8247 76.6687 35.8984 77.5499 36.6539 78.6804C37.4093 79.811 37.8125 81.1402 37.8125 82.5C37.8125 84.3234 37.0882 86.072 35.7989 87.3614C34.5095 88.6507 32.7609 89.375 30.9375 89.375ZM65.7937 79.0625H44.2062C43.4147 76.1497 41.6866 73.5782 39.2886 71.745C36.8906 69.9117 33.956 68.9184 30.9375 68.9184C27.919 68.9184 24.9844 69.9117 22.5864 71.745C20.1884 73.5782 18.4603 76.1497 17.6687 79.0625H13.75V27.5H72.1875V70.675C70.6222 71.5835 69.2517 72.792 68.1545 74.2314C67.0573 75.6707 66.255 77.3124 65.7937 79.0625ZM79.0625 89.375C77.7028 89.375 76.3735 88.9718 75.243 88.2163C74.1124 87.4609 73.2312 86.3872 72.7108 85.1309C72.1905 83.8747 72.0543 82.4924 72.3196 81.1588C72.5849 79.8251 73.2397 78.6001 74.2011 77.6386C75.1626 76.6772 76.3876 76.0224 77.7213 75.7571C79.0549 75.4918 80.4372 75.628 81.6935 76.1483C82.9497 76.6687 84.0234 77.5499 84.7789 78.6804C85.5343 79.811 85.9375 81.1402 85.9375 82.5C85.9375 84.3234 85.2132 86.072 83.9239 87.3614C82.6345 88.6507 80.8859 89.375 79.0625 89.375ZM96.25 79.0625H92.3313C91.5711 76.1184 89.8565 73.5092 87.4556 71.6433C85.0548 69.7774 82.1032 68.7599 79.0625 68.75V61.875H96.25V79.0625Z" fill="#BDBDBD"/>
</svg>
