<svg width="110" height="110" viewBox="0 0 110 110" fill="none" xmlns="http://www.w3.org/2000/svg">
<path d="M99.1504 30.4649C97.7105 27.1309 95.6343 24.1097 93.0381 21.5704C90.4399 19.0235 87.3766 16.9995 84.0146 15.6085C80.5286 14.1604 76.7895 13.4191 73.0146 13.4278C67.7188 13.4278 62.5518 14.878 58.0615 17.6173C56.9873 18.2725 55.9668 18.9923 55 19.7764C54.0332 18.9923 53.0127 18.2725 51.9385 17.6173C47.4482 14.878 42.2812 13.4278 36.9854 13.4278C33.1719 13.4278 29.4766 14.1583 25.9854 15.6085C22.6123 17.005 19.5723 19.0137 16.9619 21.5704C14.3623 24.1069 12.2856 27.1288 10.8496 30.4649C9.35645 33.9346 8.59375 37.6192 8.59375 41.4112C8.59375 44.9884 9.32422 48.7159 10.7744 52.5079C11.9883 55.6768 13.7285 58.9639 15.9521 62.2833C19.4756 67.5362 24.3203 73.0147 30.3359 78.5684C40.3047 87.7745 50.1768 94.1339 50.5957 94.3917L53.1416 96.0245C54.2695 96.7442 55.7197 96.7442 56.8477 96.0245L59.3936 94.3917C59.8125 94.1231 69.6738 87.7745 79.6533 78.5684C85.6689 73.0147 90.5137 67.5362 94.0371 62.2833C96.2607 58.9639 98.0117 55.6768 99.2148 52.5079C100.665 48.7159 101.396 44.9884 101.396 41.4112C101.406 37.6192 100.644 33.9346 99.1504 30.4649V30.4649ZM55 87.5274C55 87.5274 16.7578 63.0245 16.7578 41.4112C16.7578 30.4649 25.8135 21.5919 36.9854 21.5919C44.8379 21.5919 51.6484 25.9747 55 32.377C58.3516 25.9747 65.1621 21.5919 73.0146 21.5919C84.1865 21.5919 93.2422 30.4649 93.2422 41.4112C93.2422 63.0245 55 87.5274 55 87.5274Z" fill="#BDBDBD"/>
</svg>
