<svg width="563" height="130" viewBox="0 0 563 130" fill="none" xmlns="http://www.w3.org/2000/svg">
<g clip-path="url(#clip0)">
<path d="M105.914 92.2967L87.0864 5.1214H32.9518L18.8277 89.9456H0V130H16.4726V115.86H105.914V130H124.742V92.2967H105.914ZM49.4244 88.8912L58.485 25.404C58.5065 25.3027 58.562 25.2118 58.6424 25.1466C58.7228 25.0814 58.8231 25.0458 58.9266 25.0458C59.0301 25.0458 59.1304 25.0814 59.2108 25.1466C59.2911 25.2118 59.3467 25.3027 59.3682 25.404L72.9623 88.9305L49.4244 88.8912Z" fill="#DB1B48"/>
<path d="M190.645 7.47253H157.694V111.145H190.645V7.47253Z" fill="#DB1B48"/>
<path d="M218.887 111.152L233.011 7.47253H265.963L280.087 49.8846L294.204 7.47253H322.453L345.984 111.152H313.032L303.618 59.3088L294.204 111.152H270.673L256.549 59.3088L251.839 111.152H218.887Z" fill="#DB1B48"/>
<path d="M487.211 9.82366C479.813 3.47102 469.659 12.1224 463.791 16.7199C460.52 19.3118 457.492 22.1966 454.744 25.3385C454.744 21.9679 454.744 18.5973 454.744 15.2267C454.744 8.4025 444.159 8.3894 444.152 15.2267C444.117 45.3046 444.087 75.3847 444.061 105.467C444.061 112.285 454.646 112.298 454.652 105.467L454.691 64.6005C461.966 60.8413 469.928 57.3965 476.057 51.9607C478.956 49.3869 481.697 46.5315 484.438 43.7808C487.375 40.8337 489.933 37.4937 491.222 33.4856C492.569 29.3007 492.203 24.8408 491.503 20.5839C490.895 16.7985 490.293 12.4892 487.211 9.82366ZM479.001 34.1143C476.568 37.1138 473.48 39.6811 470.752 42.4055C467.756 45.405 464.426 47.4221 460.71 49.4L454.718 52.5894V43.9511C454.733 43.933 454.746 43.9133 454.757 43.8922C458.666 36.3127 464.197 29.6893 470.955 24.4937C472.544 23.2625 474.226 22.1229 475.881 21.0357C476.514 20.5101 477.214 20.0697 477.961 19.7259C478.857 19.3395 479.571 19.0317 480.146 19.2478C481.226 19.6604 481.33 21.7234 481.455 24.4871C481.579 27.2509 482.56 29.7199 479.001 34.1143Z" fill="#0085C3"/>
<path d="M408.505 5.3244C392.105 -4.62371 365.263 -0.569809 355.463 16.9491C351.015 24.8866 363.209 32.0317 367.657 24.0811C374.854 11.1924 396.671 11.2906 406.006 21.3828C410.991 26.7793 413.477 34.1078 415.499 41.0302C418.115 50.0549 420.078 59.3219 419.371 68.7657C418.75 77.2075 415.348 85.4922 410.631 92.467C406.909 97.9224 398.634 95.4534 393.825 90.3778C388.703 84.9682 389.756 75.21 392.517 68.7657C395.376 62.0922 397.979 58.1103 404.783 55.1108C408.303 53.5652 409.048 48.4896 407.321 45.4443C405.261 41.8161 401.126 41.3773 397.659 42.9098C389.481 46.5118 380.911 54.1677 376.587 61.6665C371.768 70.2534 370.102 80.2578 371.877 89.9456C373.676 98.9768 376.587 108.794 390.705 113.522C398.758 116.214 409.506 112.049 416.434 106.816C423.506 101.479 428.027 91.4388 430.755 83.2393C434.169 72.9768 434.143 62.1053 432.429 51.5284C429.727 34.8413 423.833 14.6176 408.505 5.3244Z" fill="#0085C3"/>
<path d="M493.577 43.3224C493.494 56.6389 493.93 69.9424 494.885 83.2327C495.095 86.0881 497.175 88.531 500.184 88.531C502.886 88.531 505.686 86.1012 505.477 83.2327C504.517 69.9511 504.081 56.6477 504.168 43.3224C504.214 36.4917 493.623 36.4851 493.577 43.3224Z" fill="#0085C3"/>
<path d="M510.154 11.2644C509.543 10.9099 508.867 10.6805 508.166 10.5894C507.465 10.4984 506.754 10.5475 506.072 10.734C504.754 11.1311 503.628 11.9979 502.906 13.1702C500.987 16.3051 499.22 19.5294 497.607 22.8433C496.921 24.0895 496.73 25.5486 497.07 26.9299C497.443 28.268 498.314 29.4119 499.504 30.1259C500.115 30.4804 500.791 30.7098 501.492 30.8009C502.193 30.892 502.904 30.8428 503.586 30.6564C504.922 30.2952 506.06 29.4192 506.752 28.2201C508.362 24.915 510.128 21.6906 512.051 18.5471C512.403 17.9461 512.634 17.2815 512.729 16.5913C512.824 15.9011 512.782 15.1989 512.606 14.5249C512.43 13.8509 512.123 13.2183 511.702 12.6633C511.281 12.1083 510.755 11.6419 510.154 11.2906V11.2644Z" fill="#0085C3"/>
<path d="M562.902 62.1446C561.593 54.135 561.888 45.9551 561.508 37.8735C561.334 33.741 560.911 29.6228 560.239 25.5415C559.585 21.5073 558.892 17.6826 555.392 15.2005C553.122 13.5763 549.399 14.7486 548.143 17.0997C544.637 23.6881 542.851 31.3768 540.509 38.4368L539.527 41.397L538.311 32.0907L537.27 24.2317C536.97 21.9788 536.924 19.5098 536.224 17.3551C534.405 11.7033 527.353 11.1662 524.383 16.1501C522.074 20.0272 521.818 25.2075 521.112 29.5496C520.24 34.671 519.431 39.7968 518.685 44.9269C517.206 54.9253 515.898 64.952 514.76 75.007C514.439 77.8559 517.422 80.3053 520.052 80.3053C523.186 80.3053 525.03 77.8624 525.351 75.007C526.398 65.6942 527.601 56.4097 528.962 47.1536C529.086 46.3022 529.23 45.4574 529.361 44.6126C529.797 47.9876 530.234 51.3603 530.67 54.731C531.141 58.3264 531.324 62.1184 533.515 65.1637C536.185 68.8705 541.686 68.4383 543.191 63.8932C545.581 56.7022 547.964 49.5113 550.341 42.3204C550.557 41.6655 550.767 41.0106 550.995 40.3949C550.995 41.1284 551.054 41.8554 551.081 42.5889C551.283 50.0876 551.46 57.534 552.683 64.9541C553.148 67.7834 556.648 69.3551 559.225 68.6544C562.202 67.8423 563.366 64.9803 562.902 62.1446Z" fill="#0085C3"/>
<path d="M407.184 130L557.812 82.8725L543.695 120.576L407.184 130Z" fill="#DB1B48"/>
</g>
<defs>
<clipPath id="clip0">
<rect width="563" height="130" fill="white"/>
</clipPath>
</defs>
</svg>
