<svg width="110" height="110" viewBox="0 0 110 110" fill="none" xmlns="http://www.w3.org/2000/svg">
<path d="M55 100.833C60.0417 100.833 64.1667 96.7083 64.1667 91.6666H45.8333C45.8333 96.7083 49.9583 100.833 55 100.833ZM82.5 73.3333V50.4166C82.5 36.3458 75.0292 24.5666 61.875 21.45V18.3333C61.875 14.5291 58.8042 11.4583 55 11.4583C51.1958 11.4583 48.125 14.5291 48.125 18.3333V21.45C35.0167 24.5666 27.5 36.3 27.5 50.4166V73.3333L18.3333 82.5V87.0833H91.6667V82.5L82.5 73.3333ZM73.3333 77.9166H36.6667V50.4166C36.6667 39.05 43.5875 29.7916 55 29.7916C66.4125 29.7916 73.3333 39.05 73.3333 50.4166V77.9166Z" fill="#BDBDBD"/>
</svg>
